<svg width="32" height="32" viewBox="0 0 32 32" fill="none" xmlns="http://www.w3.org/2000/svg">
<path fill-rule="evenodd" clip-rule="evenodd" d="M22.8025 10.1104L18.287 9.42346L13.0047 2.25825C12.6777 1.8147 12.0988 1.63761 11.5796 1.82229L2.58107 5.02318C2.08281 5.20042 1.75 5.67205 1.75 6.2009V29C1.75 29.6904 2.30964 30.25 3 30.25H29C29.6904 30.25 30.25 29.6904 30.25 29V7.88873C30.25 6.92001 29.1957 6.31945 28.3624 6.81355L22.8025 10.1104ZM4.25 7.08298L11.5431 4.48873L16.5816 11.3232C16.7781 11.5897 17.0724 11.7674 17.3998 11.8172L22.868 12.6492C23.1534 12.6926 23.4452 12.6359 23.6935 12.4886L27.75 10.0832V11.8129L21.6861 16.2122L15.6442 16.6897L12.7452 11.3151L4.25 9.9365V7.08298ZM4.25 12.4692V19.8638L10.7481 20.4851L15.0456 24.4271L21.4092 20.3331L27.75 22.1299V14.9015L22.5845 18.649L14.2173 19.3103L11.1294 13.5856L4.25 12.4692ZM27.75 24.3822L27.6592 24.7026L21.813 23.046L14.7766 27.5729L9.67578 22.894L4.25 22.3752V27.75H27.75V24.3822Z" fill="#8C979F"/>
</svg>
