<svg id="Camada_1" data-name="Camada 1" xmlns="http://www.w3.org/2000/svg" viewBox="0 0 26.72 20.12"><defs><style>.cls-1{fill:#007aff;}</style></defs><g id="Camada_2" data-name="Camada 2"><g id="Camada_1-2" data-name="Camada 1-2"><path class="cls-1" d="M21.31,20.12a9.82,9.82,0,0,1-9.56-10.06A9.82,9.82,0,0,1,21.31,0V5a5,5,0,0,0-4.85,5.11,5,5,0,0,0,4.85,5.11Z"/><path class="cls-1" d="M9.56,20.12A9.82,9.82,0,0,1,0,10.06,9.82,9.82,0,0,1,9.56,0V5A5,5,0,0,0,4.7,10.11a5,5,0,0,0,4.86,5.11Z"/><rect class="cls-1" x="21.31" y="9.98" width="5.41" height="5.16"/></g></g></svg>